PathFileType	4	(X/Y/Z)	C:/Users/opensim2020/Desktop/walking_exp_matlab/subject02_walking08_straight_01.trc																																																																																																																									
DataRate	CameraRate	NumFrames	NumMarkers	Units	OrigDataRate	OrigDataStartFrame	OrigNumFrames																																																																																																																					
100	100	4	41	mm	100	761	324																																																																																																																					
Frame#	Time	LFHD			RFHD			LBHD			RBHD			C7			T10			CLAV			STRN			RBAK			LSHO			LUPA			LELB			LFRM			LWRA			LWRB			LFIN			RSHO			RUPA			RELB			RFRM			RWRA			RWRB			RFIN			LASI			RASI			LPSI			RPSI			LTHI			LKNE			LTIB			LANK			LHEE			LTOE			RTHI			RKNE			RTIB			RANK			RHEE			RTOE			*39			*40		
		X1	Y1	Z1	X2	Y2	Z2	X3	Y3	Z3	X4	Y4	Z4	X5	Y5	Z5	X6	Y6	Z6	X7	Y7	Z7	X8	Y8	Z8	X9	Y9	Z9	X10	Y10	Z10	X11	Y11	Z11	X12	Y12	Z12	X13	Y13	Z13	X14	Y14	Z14	X15	Y15	Z15	X16	Y16	Z16	X17	Y17	Z17	X18	Y18	Z18	X19	Y19	Z19	X20	Y20	Z20	X21	Y21	Z21	X22	Y22	Z22	X23	Y23	Z23	X24	Y24	Z24	X25	Y25	Z25	X26	Y26	Z26	X27	Y27	Z27	X28	Y28	Z28	X29	Y29	Z29	X30	Y30	Z30	X31	Y31	Z31	X32	Y32	Z32	X33	Y33	Z33	X34	Y34	Z34	X35	Y35	Z35	X36	Y36	Z36	X37	Y37	Z37	X38	Y38	Z38	X39	Y39	Z39	X40	Y40	Z40	X41	Y41	Z41
																																																																																																																												
203	2.02	219.75548	1730.62988	-1073.75171	211.38174	1705.05688	-931.1145	90.24548	1656.22546	-1093.73608	69.50526	1629.72986	-954.21674	30.67844	1514.6189	-1019.05756	-27.64249	1238.97473	-1009.10681	166.67525	1441.75635	-1041.8905	216.16721	1269.61987	-1029.63611	-26.51264	1344.16016	-947.83313	82.24857	1483.27808	-1204.63538	25.64326	1290.42798	-1279.23792	-10.51906	1154.75977	-1285.91907	-36.50584	1026.1969	-1303.91223	-6.53717	889.20361	-1291.93152	-57.46833	904.72449	-1311.59094	-56.01978	837.36169	-1319.09521	125.59703	1481.42322	-841.03851	126.54118	1290.9209	-749.94263	164.83556	1148.12781	-731.66125	220.37375	1039.96899	-722.03241	291.70862	928.52032	-752.85712	252.59392	913.96252	-713.52118	303.87643	863.0155	-718.2915	210.20419	979.8949	-1146.77087	202.98042	958.72388	-886.09912	-2.85501	1019.89307	-1067.08484	-10.58315	1020.12012	-953.3064	206.69225	679.40216	-1221.72595	239.62048	481.21503	-1191.18665	243.18088	286.55975	-1196.92712	321.06635	73.4544	-1179.60754	299.58911	36.60716	-1126.24878	478.27441	77.47769	-1194.81689	65.16077	663.03638	-834.08356	11.6671	458.93256	-874.15179	-85.77632	296.49722	-868.91315	-162.62717	116.9695	-906.01855	-211.57928	71.7116	-961.24078	-24.741	35.72535	-898.79272	112.56509	1791.15466	-986.45892	2845.25269	1033.98743	-3360.31592
204	2.03	227.45717	1729.98779	-1076.4657	219.13052	1704.5437	-933.85065	98.13862	1655.25232	-1096.34778	77.75044	1628.7627	-956.66302	38.8497	1513.68811	-1021.56165	-19.0109	1237.85925	-1012.02014	174.9763	1441.10364	-1044.33508	224.86024	1269.06995	-1032.12708	-18.18428	1343.08997	-950.44141	90.55809	1482.56482	-1207.1377	34.44428	1289.55884	-1281.75439	-1.43653	1153.90662	-1288.46472	-27.62935	1025.45862	-1306.58508	2.23562	888.57568	-1294.8158	-48.7034	904.01392	-1314.47559	-47.38828	836.62994	-1322.06104	133.59486	1480.5835	-843.53107	134.84151	1290.11768	-752.5979	172.40724	1147.21838	-734.40179	227.46066	1039.00354	-724.72125	298.4006	927.04749	-755.52319	259.23291	912.74109	-716.24847	310.33923	861.63379	-721.09546	220.22362	979.7619	-1149.58545	211.65805	957.84845	-888.83679	6.67289	1018.8446	-1070.27771	-1.29118	1019.11932	-956.60205	215.66034	678.21704	-1223.62439	246.39102	479.53131	-1192.62109	247.30519	284.70517	-1197.36304	322.15106	70.59468	-1179.21411	299.87268	34.85633	-1126.07935	479.58496	72.1069	-1193.85522	72.40117	663.22638	-835.83282	18.2635	459.19498	-874.89734	-81.86791	298.18811	-869.52136	-161.11591	119.59539	-905.83502	-210.61266	75.27094	-961.24908	-24.70159	35.87951	-898.21021	120.04503	1790.40857	-989.32483	2845.15015	1033.96545	-3360.37085
205	2.04	235.21155	1729.38367	-1079.30737	226.99562	1704.15356	-936.68408	106.05666	1654.22961	-1098.9574	85.97709	1627.83789	-959.12335	46.98858	1512.79089	-1024.11938	-10.27139	1236.77209	-1015.06738	183.30766	1440.44788	-1046.88525	233.69096	1268.62	-1034.72412	-9.69705	1341.92175	-953.24292	98.86715	1481.81653	-1209.65601	43.36757	1288.66699	-1284.36902	7.66016	1152.86487	-1291.09729	-18.43099	1024.64209	-1309.4198	11.19216	887.47467	-1298.02283	-39.69733	903.21252	-1317.52429	-38.48488	835.83185	-1325.12915	141.75758	1479.69385	-846.08099	142.67627	1289.34741	-755.31329	179.61008	1146.33801	-737.26666	234.40607	1037.62671	-727.59003	304.92462	925.63489	-758.2196	265.84058	911.508	-718.90405	316.48108	860.0025	-723.69464	230.40848	979.55261	-1152.36914	221.26169	957.53253	-891.35266	16.4247	1017.73389	-1073.76965	7.31324	1018.61078	-959.30115	224.56235	676.92157	-1225.52051	252.63472	477.77872	-1194.61157	251.28058	282.77957	-1197.45862	324.32098	69.04267	-1178.83984	301.78979	35.80555	-1125.48254	482.84323	64.47446	-1194.24756	79.88892	663.3642	-837.62939	25.07286	459.51489	-875.58307	-77.59321	300.11588	-870.12793	-159.37178	122.55501	-905.6629	-209.18878	78.98022	-961.11176	-24.46924	35.89771	-897.8894	127.68617	1789.60083	-992.12677	2845.17432	1034.0011	-3360.28149
206	2.05	242.94014	1729.1134	-1082.16199	234.78142	1703.98022	-939.39679	114.04202	1653.4718	-1101.80139	94.14131	1627.15735	-961.90997	54.92791	1512.00793	-1026.79456	-1.45761	1236.04822	-1018.34613	191.64745	1439.92664	-1049.56238	242.39264	1268.36682	-1037.35474	-1.49221	1341.19678	-956.27014	107.28782	1481.34644	-1212.46484	52.33264	1287.78882	-1287.03577	17.0053	1151.93274	-1293.89209	-9.04101	1023.78577	-1312.36816	20.56561	886.5968	-1301.22742	-30.32063	902.35754	-1320.71606	-29.18748	834.96429	-1328.38879	149.83284	1478.92224	-848.67755	150.51106	1288.50439	-758.12604	186.61545	1145.14075	-740.20123	241.40717	1036.71948	-730.27417	311.50104	924.1825	-761.01563	272.25903	910.29498	-721.54785	323.05536	858.54169	-726.61615	240.70546	979.44336	-1155.18689	230.82051	957.05017	-894.08453	26.28658	1016.61237	-1077.4928	16.81305	1017.51056	-963.0365	233.03003	676.22601	-1227.44824	257.83698	476.71368	-1197.33521	256.0256	281.42789	-1196.87756	328.61066	69.07822	-1180.56616	304.72937	38.48634	-1127.34534	487.87152	56.81791	-1195.56226	87.85212	663.48907	-839.45856	32.45173	460.05722	-876.47656	-73.0777	302.21368	-870.82501	-157.67229	125.95304	-905.49023	-207.56123	83.11568	-960.95715	-24.19138	35.92753	-897.58362	135.16635	1789.01965	-995.06183	2845.17554	1033.96887	-3360.2832
